<svg width="149" height="143" viewBox="0 0 149 143" fill="none" xmlns="http://www.w3.org/2000/svg">
<g clip-path="url(#clip0_9_88)">
<ellipse cx="74.5" cy="71.5" rx="74.5" ry="71.5" fill="#5D373C"/>
<path d="M61.375 32.75H43.875C41.5544 32.75 39.3288 33.6455 37.6878 35.2396C36.0469 36.8337 35.125 38.9957 35.125 41.25V58.25M61.375 32.75H105.125C107.446 32.75 109.671 33.6455 111.312 35.2396C112.953 36.8337 113.875 38.9957 113.875 41.25V58.25M61.375 32.75V109.25M35.125 58.25V100.75C35.125 103.004 36.0469 105.166 37.6878 106.76C39.3288 108.354 41.5544 109.25 43.875 109.25H61.375M35.125 58.25H113.875M113.875 58.25V100.75C113.875 103.004 112.953 105.166 111.312 106.76C109.671 108.354 107.446 109.25 105.125 109.25H61.375" stroke="white" stroke-width="7" stroke-linecap="round" stroke-linejoin="round"/>
</g>
<defs>
<clipPath id="clip0_9_88">
<rect width="149" height="143" fill="white"/>
</clipPath>
</defs>
</svg>
