<svg width="231" height="41" viewBox="0 0 231 41" fill="none" xmlns="http://www.w3.org/2000/svg">
<path fill-rule="evenodd" clip-rule="evenodd" d="M229.532 -118.878C229.691 -117.2 229.616 -115.366 229.309 -113.375C229.001 -111.384 228.494 -109.301 227.787 -107.126C227.057 -104.908 226.18 -102.572 225.156 -100.118C224.119 -97.7259 222.946 -95.2374 221.636 -92.6528C220.348 -90.1119 218.988 -87.4705 217.554 -84.7283C216.108 -82.0476 214.611 -79.3101 213.063 -76.5157C211.516 -73.7212 209.985 -70.918 208.473 -68.1059C206.903 -65.2676 205.396 -62.4248 203.953 -59.5773C202.498 -56.7914 201.123 -53.9919 199.829 -51.179C198.535 -48.3662 197.355 -45.6055 196.29 -42.8971C195.224 -40.1888 194.262 -37.5107 193.402 -34.8631C192.508 -32.2331 191.699 -29.6423 190.976 -27.0906C190.253 -24.539 189.609 -22.0573 189.045 -19.6456C188.423 -17.2077 187.824 -14.8137 187.247 -12.4634C186.692 -10.1569 186.159 -7.8943 185.648 -5.67547C185.103 -3.47431 184.556 -1.35654 184.007 0.67783C183.436 2.75602 182.835 4.76388 182.204 6.70141C181.538 8.62127 180.825 10.4619 180.064 12.2235C179.28 14.0288 178.432 15.7461 177.518 17.3754C176.57 18.987 175.539 20.5018 174.426 21.9198C173.291 23.3815 172.062 24.7683 170.739 26.0802C169.439 27.3482 168.056 28.5194 166.591 29.5938C165.104 30.7119 163.551 31.7421 161.934 32.6842C160.338 33.5826 158.684 34.4236 156.972 35.2074C155.281 35.9475 153.561 36.6171 151.81 37.2165C150.047 37.7544 148.253 38.2219 146.43 38.6191C144.641 39.034 142.844 39.3347 141.039 39.5214C139.235 39.708 137.429 39.8112 135.621 39.8311C133.813 39.8509 132.032 39.7743 130.278 39.6012C128.524 39.4281 126.815 39.1675 125.15 38.8192C123.45 38.4532 121.783 38.0215 120.15 37.5241C118.516 37.0267 116.899 36.4548 115.297 35.8083C113.673 35.2056 112.054 34.5502 110.44 33.8423C108.848 33.0905 107.227 32.3517 105.578 31.6261C103.951 30.8566 102.306 30.0783 100.644 29.2911C98.9604 28.5478 97.2413 27.7868 95.4874 27.0081C93.7113 26.2732 91.8956 25.5732 90.0402 24.9083C88.1721 24.1818 86.2422 23.5341 84.2505 22.9652C82.2587 22.3963 80.1987 21.8755 78.0706 21.4026C75.9425 20.9298 73.7239 20.5488 71.415 20.2596C69.1061 19.9704 66.729 19.7293 64.2837 19.5362C61.8955 19.317 59.4391 19.1458 56.9145 19.0226C54.4248 18.9171 51.9352 18.8116 49.4455 18.7061C46.8987 18.6268 44.3916 18.5124 41.9241 18.3631C39.4566 18.2138 37.0287 18.0296 34.6405 17.8103C32.2523 17.5911 29.9434 17.3019 27.7138 16.9428C25.4842 16.5837 23.3449 16.1328 21.2961 15.59C19.2694 15.0034 17.3617 14.312 15.5729 13.5156C13.7968 12.7807 12.1555 11.8663 10.649 10.7725C9.17734 9.6964 7.87538 8.45851 6.74309 7.05884C5.64569 5.67686 4.70053 4.12426 3.9076 2.40105C3.12735 0.739328 2.51202 -1.03152 2.06161 -2.91149C1.63341 -4.83527 1.34792 -6.82437 1.20515 -8.87878C1.11947 -10.9593 1.16541 -13.0833 1.34297 -15.2506C1.52052 -17.418 1.84714 -19.62 2.32283 -21.8565C2.79851 -24.093 3.4296 -26.3333 4.2161 -28.5775C4.9804 -30.7779 5.87156 -32.969 6.88959 -35.151C7.9425 -37.3152 9.11752 -39.4175 10.4147 -41.458C11.7118 -43.4985 13.1199 -45.4551 14.6391 -47.328C16.136 -49.1571 17.7899 -50.9067 19.6009 -52.5766C21.3547 -54.2205 23.191 -55.7675 25.1098 -57.2176C27.0634 -58.6501 29.0758 -60.0253 31.1468 -61.3433C33.2178 -62.6612 35.3475 -63.9219 37.5358 -65.1253C39.7242 -66.3287 41.93 -67.5233 44.1532 -68.709C46.3765 -69.8948 48.5886 -71.0586 50.7897 -72.2005C53.0478 -73.3686 55.2711 -74.5543 57.4594 -75.7578C59.6129 -76.9789 61.7426 -78.2395 63.8485 -79.5398C65.9544 -80.8401 67.9842 -82.2064 69.9378 -83.6389C71.8915 -85.0714 73.7516 -86.5788 75.5181 -88.1612C77.3068 -89.7873 78.9957 -91.5192 80.5846 -93.3567C82.1513 -95.1504 83.6181 -97.0499 84.985 -99.055C86.3868 -101.042 87.6839 -103.083 88.8764 -105.176C90.1037 -107.252 91.2613 -109.363 92.3491 -111.51C93.4718 -113.639 94.5311 -115.772 95.5269 -117.91C96.5576 -120.031 97.5487 -122.116 98.5001 -124.167C99.4515 -126.217 100.405 -128.184 101.359 -130.068C102.279 -131.969 103.218 -133.779 104.175 -135.495C105.133 -137.212 106.123 -138.776 107.144 -140.185C108.152 -141.656 109.199 -142.943 110.284 -144.045C111.368 -145.147 112.52 -146.077 113.737 -146.837C114.955 -147.596 116.24 -148.184 117.591 -148.6C118.885 -148.991 120.268 -149.253 121.739 -149.388C123.211 -149.524 124.743 -149.518 126.335 -149.372C127.914 -149.287 129.565 -149.084 131.287 -148.762C133.032 -148.483 134.841 -148.117 136.715 -147.663C138.555 -147.226 140.482 -146.745 142.496 -146.22C144.51 -145.695 146.593 -145.134 148.747 -144.539C150.9 -143.943 153.128 -143.364 155.431 -142.803C157.734 -142.242 160.104 -141.728 162.543 -141.263C164.995 -140.737 167.526 -140.28 170.136 -139.893C172.724 -139.463 175.363 -139.089 178.052 -138.772C180.755 -138.394 183.45 -138.046 186.14 -137.729C188.829 -137.412 191.49 -137.082 194.123 -136.739C196.733 -136.352 199.28 -135.97 201.763 -135.593C204.259 -135.154 206.652 -134.684 208.942 -134.185C211.232 -133.685 213.385 -133.089 215.403 -132.397C217.385 -131.723 219.213 -130.961 220.888 -130.113C222.563 -129.264 223.998 -128.289 225.193 -127.188C226.424 -126.069 227.415 -124.823 228.167 -123.451C228.884 -122.097 229.339 -120.572 229.532 -118.878Z" fill="#5D373C" stroke="black"/>
</svg>
